<svg width="25" height="24" viewBox="0 0 25 24" fill="none" xmlns="http://www.w3.org/2000/svg">
<path fill-rule="evenodd" clip-rule="evenodd" d="M13.2072 3.11013V2H11.7786V3.11016C7.51255 3.45902 4.12295 6.90397 3.8608 11.1941L2.501 11.1796L2.48584 12.6081L3.89006 12.623C4.33711 16.9798 8.01823 20.3784 12.4931 20.3784C16.9054 20.3784 20.5459 17.0743 21.0755 12.8055L22.4846 12.8204L22.4998 11.3919L21.1347 11.3774C20.9595 7.00236 17.5341 3.46376 13.2072 3.11013ZM19.7132 11.7297C19.7132 15.7173 16.4807 18.9498 12.4931 18.9498C8.50559 18.9498 5.27305 15.7173 5.27305 11.7297C5.27305 7.74218 8.50559 4.50964 12.4931 4.50964C16.4807 4.50964 19.7132 7.74218 19.7132 11.7297ZM13.2072 20.3784V22H11.7786V20.3784H13.2072ZM12.4936 17.7142C15.6495 17.7142 18.2079 15.1558 18.2079 11.9999C18.2079 8.84402 15.6495 6.28564 12.4936 6.28564C9.33767 6.28564 6.7793 8.84402 6.7793 11.9999C6.7793 15.1558 9.33767 17.7142 12.4936 17.7142Z" fill="#FF7737"/>
</svg>
